<svg xmlns="http://www.w3.org/2000/svg" width="512" height="512" viewBox="0 0 512 512">
<g>
<path d="M 206.92 199.29 L 201.71 210.00 L 94.00 210.00 L 94.00 150.00 L 173.17 150.00 C216.71,150.00 252.15,150.18 251.92,150.40 C251.69,150.62 248.05,153.10 243.84,155.91 C234.54,162.12 223.05,173.21 216.77,182.04 C214.21,185.64 209.78,193.40 206.92,199.29 ZM 252.00 366.65 C252.00,366.84 216.45,367.00 173.00,367.00 L 94.00 367.00 L 94.00 307.00 L 201.50 307.01 L 206.63 317.75 C215.42,336.18 227.58,350.05 245.21,361.78 C248.94,364.26 252.00,366.45 252.00,366.65 ZM 195.62 283.25 L 196.26 288.00 L 73.00 288.00 L 73.00 228.00 L 135.11 228.00 C188.02,228.00 197.13,228.21 196.68,229.40 C194.09,236.15 193.48,267.23 195.62,283.25 Z" fill="rgb(4,210,125)"/>
<path d="M 0.00 0.00 L 512.00 0.00 L 512.00 512.00 L 0.00 512.00 ZM 206.92 199.29 C207.33,198.44 207.77,197.56 208.24,196.65 C201.00,211.04 196.44,227.06 194.72,243.71 C195.11,237.09 195.77,231.76 196.68,229.40 C197.13,228.21 188.02,228.00 135.11,228.00 L 73.00 228.00 L 73.00 288.00 L 196.26 288.00 L 195.62 283.25 C195.30,280.80 195.03,278.01 194.83,275.00 C194.87,275.33 194.91,275.67 194.95,276.00 C196.63,290.51 200.22,303.80 205.69,315.79 L 201.50 307.01 L 94.00 307.00 L 94.00 367.00 L 173.00 367.00 C216.45,367.00 252.00,366.84 252.00,366.65 C252.00,366.45 248.94,364.26 245.21,361.78 C229.13,351.09 217.61,338.61 209.03,322.52 C211.92,327.88 215.21,332.96 218.91,337.74 C236.71,360.77 265.73,376.53 298.50,380.94 C310.17,382.51 338.98,381.43 350.50,378.99 C377.33,373.30 397.03,362.99 414.42,345.53 L 423.36 336.56 L 404.01 317.83 L 384.66 299.10 L 378.72 304.59 C366.91,315.53 355.69,321.18 339.06,324.55 C326.66,327.06 308.23,326.21 297.73,322.64 C284.72,318.22 276.15,311.69 268.93,300.69 C265.32,295.18 261.28,285.38 262.24,284.43 C262.48,284.19 275.91,283.10 292.09,282.01 C308.26,280.91 334.10,279.14 349.50,278.06 C364.90,276.99 388.81,275.79 402.63,275.41 L 427.77 274.71 L 428.38 270.22 C429.26,263.84 429.10,251.08 428.02,240.00 C425.94,218.85 417.31,194.60 406.42,179.33 C392.74,160.17 371.62,145.82 347.50,139.30 C338.00,136.73 336.36,136.60 314.50,136.60 C292.88,136.60 290.93,136.75 282.00,139.18 C267.59,143.11 255.09,148.53 244.33,155.58 C248.33,152.91 251.70,150.61 251.92,150.40 C252.15,150.18 216.71,150.00 173.17,150.00 L 94.00 150.00 L 94.00 210.00 L 201.71 210.00 ZM 362.50 232.00 C362.16,232.55 359.32,232.93 356.19,232.84 C353.06,232.75 335.20,232.32 316.50,231.88 C297.80,231.43 277.77,230.94 272.00,230.79 L 261.50 230.50 L 261.72 227.54 C262.06,222.92 267.39,213.06 272.89,206.90 C282.28,196.39 296.44,191.05 315.04,191.02 C335.52,190.98 349.71,198.63 357.44,213.88 C360.42,219.75 363.42,230.51 362.50,232.00 ZM 211.92 189.88 C213.72,186.73 215.48,183.85 216.77,182.04 C218.14,180.11 219.76,178.07 221.56,176.00 C218.04,180.29 214.83,184.92 211.92,189.88 Z" fill="rgb(3,33,34)"/>
<path d="M 298.50 380.94 C265.73,376.53 236.71,360.77 218.91,337.74 C205.76,320.73 197.74,300.05 194.95,276.00 C191.68,247.88 196.48,219.69 208.57,196.00 C223.35,167.04 247.05,148.70 282.00,139.18 C290.93,136.75 292.88,136.60 314.50,136.60 C336.36,136.60 338.00,136.73 347.50,139.30 C371.62,145.82 392.74,160.17 406.42,179.33 C417.31,194.60 425.94,218.85 428.02,240.00 C429.10,251.08 429.26,263.84 428.38,270.22 L 427.77 274.71 L 402.63 275.41 C388.81,275.79 364.90,276.99 349.50,278.06 C334.10,279.14 308.26,280.91 292.09,282.01 C275.91,283.10 262.48,284.19 262.24,284.43 C261.28,285.38 265.32,295.18 268.93,300.69 C276.15,311.69 284.72,318.22 297.73,322.64 C308.23,326.21 326.66,327.06 339.06,324.55 C355.69,321.18 366.91,315.53 378.72,304.59 L 384.66 299.10 L 404.01 317.83 L 423.36 336.56 L 414.42 345.53 C397.03,362.99 377.33,373.30 350.50,378.99 C338.98,381.43 310.17,382.51 298.50,380.94 ZM 362.50 232.00 C363.42,230.51 360.42,219.75 357.44,213.88 C349.71,198.63 335.52,190.98 315.04,191.02 C296.44,191.05 282.28,196.39 272.89,206.90 C267.39,213.06 262.06,222.92 261.72,227.54 L 261.50 230.50 L 272.00 230.79 C277.77,230.94 297.80,231.43 316.50,231.88 C335.20,232.32 353.06,232.75 356.19,232.84 C359.32,232.93 362.16,232.55 362.50,232.00 Z" fill="rgb(253,254,254)"/>
</g>
</svg>